<svg width="105" height="105" viewBox="0 0 105 105" fill="none" xmlns="http://www.w3.org/2000/svg">
<path d="M96.1187 80.1937C96.1187 81.7687 95.7687 83.3875 95.025 84.9625C94.2812 86.5375 93.3188 88.025 92.05 89.425C89.9063 91.7875 87.5437 93.4938 84.875 94.5875C82.25 95.6813 79.4063 96.25 76.3438 96.25C71.8813 96.25 67.1125 95.2 62.0812 93.0563C57.05 90.9125 52.0187 88.025 47.0312 84.3938C42 80.7188 37.2312 76.65 32.6812 72.1437C28.175 67.5937 24.1062 62.825 20.475 57.8375C16.8875 52.85 14 47.8625 11.9 42.9188C9.8 37.9313 8.75 33.1625 8.75 28.6125C8.75 25.6375 9.275 22.7938 10.325 20.1688C11.375 17.5 13.0375 15.05 15.3562 12.8625C18.1562 10.1063 21.2188 8.75 24.4563 8.75C25.6813 8.75 26.9063 9.0125 28 9.5375C29.1375 10.0625 30.1438 10.85 30.9313 11.9875L41.0813 26.2938C41.8688 27.3875 42.4375 28.3938 42.8312 29.3563C43.225 30.275 43.4438 31.1938 43.4438 32.025C43.4438 33.075 43.1375 34.125 42.525 35.1312C41.9563 36.1375 41.125 37.1875 40.075 38.2375L36.75 41.6937C36.2687 42.175 36.05 42.7438 36.05 43.4438C36.05 43.7938 36.0938 44.1 36.1813 44.45C36.3125 44.8 36.4438 45.0625 36.5313 45.325C37.3188 46.7687 38.675 48.65 40.6 50.925C42.5687 53.2 44.6687 55.5188 46.9437 57.8375C49.3062 60.1563 51.5812 62.3 53.9 64.2687C56.175 66.1937 58.0562 67.5062 59.5437 68.2937C59.7625 68.3812 60.025 68.5125 60.3312 68.6437C60.6812 68.775 61.0312 68.8187 61.425 68.8187C62.1687 68.8187 62.7375 68.5563 63.2187 68.075L66.5438 64.7938C67.6375 63.7 68.6875 62.8687 69.6938 62.3438C70.7 61.7312 71.7062 61.425 72.8 61.425C73.6312 61.425 74.5063 61.6 75.4688 61.9938C76.4312 62.3875 77.4375 62.9563 78.5313 63.7L93.0125 73.9812C94.15 74.7687 94.9375 75.6875 95.4187 76.7812C95.8562 77.875 96.1187 78.9687 96.1187 80.1937Z" stroke="#FFCF36" stroke-width="1.5" stroke-miterlimit="10"/>
<path d="M80.9375 39.375C80.9375 36.75 78.8812 32.725 75.8187 29.4438C73.0187 26.425 69.3 24.0625 65.625 24.0625" stroke="#FFCF36" stroke-width="1.5" stroke-linecap="round" stroke-linejoin="round"/>
<path d="M96.25 39.375C96.25 22.4438 82.5562 8.75 65.625 8.75" stroke="#FFCF36" stroke-width="1.5" stroke-linecap="round" stroke-linejoin="round"/>
</svg>
