<svg width="60" height="60" viewBox="0 0 60 60" fill="none" xmlns="http://www.w3.org/2000/svg">
<path d="M41.75 47.45H18.25C17.2 47.45 16.025 46.625 15.675 45.625L5.32501 16.675C3.85001 12.525 5.57501 11.25 9.12501 13.8L18.875 20.775C20.5 21.9 22.35 21.325 23.05 19.5L27.45 7.77502C28.85 4.02502 31.175 4.02502 32.575 7.77502L36.975 19.5C37.675 21.325 39.525 21.9 41.125 20.775L50.275 14.25C54.175 11.45 56.05 12.875 54.45 17.4L44.35 45.675C43.975 46.625 42.8 47.45 41.75 47.45Z" stroke="#265684" stroke-width="1.5" stroke-linecap="round" stroke-linejoin="round"/>
<path d="M16.25 55H43.75" stroke="#265684" stroke-width="1.5" stroke-linecap="round" stroke-linejoin="round"/>
<path d="M23.75 35H36.25" stroke="#265684" stroke-width="1.5" stroke-linecap="round" stroke-linejoin="round"/>
</svg>
