<svg width="105" height="105" viewBox="0 0 105 105" fill="none" xmlns="http://www.w3.org/2000/svg">
<path d="M42.2188 60.375L49.2625 65.8438C50.1813 66.7625 52.2375 67.1998 53.5938 67.1998H62.2563C64.9688 67.1998 67.9438 65.1437 68.6438 62.4312L74.1125 45.8497C75.25 42.656 73.1938 39.9436 69.7813 39.9436H60.6813C59.325 39.9436 58.1876 38.8061 58.4063 37.2311L59.5438 29.9685C59.9813 27.9122 58.625 25.6371 56.5687 24.9809C54.7312 24.2809 52.4562 25.1996 51.5812 26.5558L42.2625 40.4248" stroke="#FFCF36" stroke-width="1.5" stroke-miterlimit="10"/>
<path d="M30.625 60.3752V38.1061C30.625 34.9124 31.9812 33.7749 35.175 33.7749H37.45C40.6437 33.7749 42 34.9124 42 38.1061V60.3752C42 63.569 40.6437 64.7065 37.45 64.7065H35.175C31.9812 64.7065 30.625 63.569 30.625 60.3752Z" stroke="#FFCF36" stroke-width="1.5" stroke-linecap="round" stroke-linejoin="round"/>
<path d="M78.75 82.5125H75.425C71.925 82.5125 68.6 83.8687 66.15 86.3187L58.6688 93.7127C55.2563 97.0815 49.7 97.0815 46.2875 93.7127L38.8062 86.3187C36.3562 83.8687 32.9875 82.5125 29.5312 82.5125H26.25C18.9875 82.5125 13.125 76.6938 13.125 69.5188V21.7874C13.125 14.6124 18.9875 8.79382 26.25 8.79382H78.75C86.0125 8.79382 91.875 14.6124 91.875 21.7874V69.5188C91.875 76.6501 86.0125 82.5125 78.75 82.5125Z" stroke="#FFCF36" stroke-width="1.5" stroke-miterlimit="10" stroke-linecap="round" stroke-linejoin="round"/>
</svg>
