<svg width="10" height="13" viewBox="0 0 10 13" fill="none" xmlns="http://www.w3.org/2000/svg">
<path d="M4.99979 0.702033C2.24304 0.702033 0 2.68003 0 5.11127C0 5.74544 0.147192 6.35092 0.437266 6.91105C1.68735 9.3233 4.08412 11.8701 4.78908 12.5932C4.8419 12.6472 4.9189 12.6783 4.99993 12.6783C5.08096 12.6783 5.15796 12.6472 5.21078 12.5932C5.91547 11.8703 8.31223 9.32355 9.56273 6.91105C9.85295 6.35092 10 5.74544 10 5.11127C9.99972 2.68003 7.75668 0.702033 4.99979 0.702033ZM4.99979 7.40145C3.56777 7.40145 2.4026 6.37396 2.4026 5.11115C2.4026 3.84822 3.56777 2.82073 4.99979 2.82073C6.43182 2.82073 7.59698 3.84822 7.59698 5.11115C7.59712 6.37396 6.43196 7.40145 4.99979 7.40145Z" fill="white"/>
</svg>
