<svg width="127" height="127" viewBox="0 0 127 127" fill="none" xmlns="http://www.w3.org/2000/svg">
<path d="M63.5 79.375C72.2675 79.375 79.375 72.2675 79.375 63.5C79.375 54.7325 72.2675 47.625 63.5 47.625C54.7325 47.625 47.625 54.7325 47.625 63.5C47.625 72.2675 54.7325 79.375 63.5 79.375Z" stroke="white" stroke-width="1.5" stroke-miterlimit="10" stroke-linecap="round" stroke-linejoin="round"/>
<path d="M10.5833 68.1567V58.8433C10.5833 53.34 15.0812 48.7892 20.6374 48.7892C30.2153 48.7892 34.1312 42.0158 29.3158 33.7079C26.5641 28.9454 28.2045 22.7542 33.0199 20.0025L42.1745 14.7638C46.3549 12.2767 51.7524 13.7583 54.2395 17.9388L54.8216 18.9442C59.5841 27.2521 67.4157 27.2521 72.2312 18.9442L72.8133 17.9388C75.3003 13.7583 80.6978 12.2767 84.8783 14.7638L94.0328 20.0025C98.8483 22.7542 100.489 28.9454 97.737 33.7079C92.9216 42.0158 96.8374 48.7892 106.415 48.7892C111.919 48.7892 116.469 53.2871 116.469 58.8433V68.1567C116.469 73.66 111.972 78.2108 106.415 78.2108C96.8374 78.2108 92.9216 84.9842 97.737 93.2921C100.489 98.1075 98.8483 104.246 94.0328 106.998L84.8783 112.236C80.6978 114.723 75.3003 113.242 72.8133 109.061L72.2312 108.056C67.4687 99.7479 59.637 99.7479 54.8216 108.056L54.2395 109.061C51.7524 113.242 46.3549 114.723 42.1745 112.236L33.0199 106.998C28.2045 104.246 26.5641 98.0546 29.3158 93.2921C34.1312 84.9842 30.2153 78.2108 20.6374 78.2108C15.0812 78.2108 10.5833 73.66 10.5833 68.1567Z" stroke="white" stroke-width="1.5" stroke-miterlimit="10" stroke-linecap="round" stroke-linejoin="round"/>
</svg>
