<svg width="20" height="20" viewBox="0 0 105 105" fill="#FFCF36" xmlns="http://www.w3.org/2000/svg">
	<path d="M60.0688 15.3563L67.7688 30.7563C68.8188 32.9001 71.6188 34.9563 73.9813 35.35L87.9375 37.6688C96.8625 39.1563 98.9625 45.6313 92.5313 52.0188L81.6813 62.8688C79.8438 64.7063 78.8375 68.25 79.4063 70.7875L82.5125 84.2188C84.9625 94.8501 79.3188 98.9626 69.9125 93.4063L56.8313 85.6626C54.4688 84.2626 50.575 84.2626 48.1688 85.6626L35.0875 93.4063C25.725 98.9626 20.0375 94.8063 22.4875 84.2188L25.5938 70.7875C26.1625 68.25 25.1563 64.7063 23.3188 62.8688L12.4688 52.0188C6.08128 45.6313 8.13753 39.1563 17.0625 37.6688L31.0188 35.35C33.3375 34.9563 36.1375 32.9001 37.1875 30.7563L44.8875 15.3563C49.0875 7.00005 55.9125 7.00005 60.0688 15.3563Z" stroke="#FFCF36" stroke-width="1.5" stroke-linecap="round" stroke-linejoin="round" />
</svg>
