<svg width="13" height="13" viewBox="0 0 13 13" fill="none" xmlns="http://www.w3.org/2000/svg">
<g clip-path="url(#clip0_1_46)">
<path d="M4.10783 0.465055C5.74022 -0.163344 7.64169 -0.119876 9.23055 0.60999C8.77782 0.543556 8.3173 0.593641 7.86913 0.666822C6.65199 0.888832 5.49531 1.44197 4.59119 2.26371C3.72428 3.08674 3.11679 4.17875 2.94523 5.34705C2.83171 6.17488 2.9369 7.0432 3.32152 7.79668C3.71783 8.58727 4.41547 9.23565 5.25632 9.57028C6.06653 9.90142 7.00639 9.89778 7.82708 9.6022C9.05846 9.16571 9.94324 7.98716 10.0444 6.72802C10.1081 5.90279 9.90025 5.02487 9.32621 4.39193C8.77822 3.77236 7.97674 3.4311 7.17472 3.23686C7.13173 2.47287 7.50439 1.71809 8.09536 1.22126C8.42356 0.935413 8.83089 0.753239 9.25205 0.63659L9.28402 0.62595C10.4897 1.18441 11.5142 2.10541 12.167 3.23608C12.7263 4.19873 13.0179 5.30799 12.989 6.41298C12.9835 7.84183 12.4306 9.25654 11.4827 10.3491C10.5863 11.391 9.33265 12.1405 7.96626 12.4406C6.59624 12.7459 5.12224 12.6142 3.84008 12.0518C2.58546 11.5106 1.52255 10.5698 0.846407 9.4125C0.283917 8.45077 -0.0136502 7.34189 0.0110687 6.23561C0.0137556 4.85723 0.520493 3.48949 1.40527 2.41163C2.11204 1.55097 3.04961 0.866644 4.10783 0.465055Z" fill="#E60000"/>
<path d="M7.86919 0.667659C8.31735 0.594477 8.77787 0.544392 9.23061 0.610826L9.29563 0.621466L9.2521 0.637426C8.83094 0.754075 8.42361 0.93625 8.09542 1.2221C7.50445 1.71893 7.13178 2.47371 7.17477 3.2377C7.97679 3.43194 8.77828 3.77319 9.32626 4.39277C9.9003 5.02571 10.1081 5.90363 10.0445 6.72886C9.94329 7.98799 9.05852 9.16655 7.82714 9.60304C7.00644 9.89862 6.06658 9.90226 5.25637 9.57112C4.41552 9.23649 3.71788 8.58811 3.32157 7.79752C2.93695 7.04403 2.83176 6.17572 2.94528 5.34789C3.11684 4.17958 3.72433 3.08757 4.59124 2.26454C5.49536 1.44281 6.65205 0.889668 7.86919 0.667659Z" fill="white"/>
</g>
<defs>
<clipPath id="clip0_1_46">
<rect width="13" height="12.6225" fill="white" transform="translate(0 -0.0100632)"/>
</clipPath>
</defs>
</svg>
